# xmcd
#
# Track frame offsets:
#	150
#	14033
#	33641
#	56991
#	72480
#	91905
#	122374
#	149560
#	163694
#
# Disc length: 2582 seconds
#
# Revision: 1
# Processed by: cddbd v1.5.2PL0 Copyright (c) Steve Scherf et al.
# Submitted via: audiograbber 1.83.01
#
DISCID=850a1409
DTITLE=Breakmaszyna - Postblues
DYEAR=2008
DGENRE=Blues
TTITLE0=Szymon by³ punkiem
TTITLE1=Nie wyprowadze siê do Anglii
TTITLE2=Smutne Boogie
TTITLE3=Spozniona kobieta
TTITLE4=Musze sie ruszyc
TTITLE5=Oslo
TTITLE6=Spadam w dó³
TTITLE7=Boogie z obnizona struna D
TTITLE8=Budzik
EXTD=Post blues from Poland, polish lyrics, good
EXTT0=
EXTT1=
EXTT2=
EXTT3=
EXTT4=
EXTT5=
EXTT6=
EXTT7=
EXTT8=
PLAYORDER=
